<?xml version="1.0" encoding="utf-8"?>
<!-- Generator: Adobe Illustrator 25.0.1, SVG Export Plug-In . SVG Version: 6.00 Build 0)  -->
<svg version="1.1" id="Livello_1" xmlns="http://www.w3.org/2000/svg" xmlns:xlink="http://www.w3.org/1999/xlink" x="0px" y="0px"
	 viewBox="0 0 10.35 10.35" style="enable-background:new 0 0 10.35 10.35;" xml:space="preserve">
<path d="M6.29,5.59C6.73,5,7,4.29,7,3.5C7,1.57,5.43,0,3.5,0C1.74,0,0.3,1.3,0.05,2.99C0.03,3.16,0,3.33,0,3.5
	c0,0.23,0.03,0.45,0.07,0.66C0.33,5.55,1.41,6.65,2.8,6.93C3.02,6.98,3.26,7,3.5,7c0.24,0,0.48-0.02,0.7-0.07
	c0.51-0.1,0.98-0.33,1.38-0.63l4.06,4.06l0.71-0.71L6.29,5.59z M3.5,6C2.12,6,1,4.88,1,3.5S2.12,1,3.5,1S6,2.12,6,3.5
	c0,0.51-0.15,0.98-0.42,1.38C5.4,5.16,5.16,5.4,4.88,5.58C4.48,5.85,4.01,6,3.5,6z"/>
</svg>
